<?xml version="1.0" encoding="UTF-8"?>
<svg xmlns="http://www.w3.org/2000/svg" viewBox="0 0 270 266">
  <defs>
    <style>
      .cls-1 {
        fill: #8b0000;
      }

      .cls-1, .cls-2, .cls-3, .cls-4 {
        stroke-width: 0px;
      }

      .cls-2 {
        fill: #191c1f;
      }

      .cls-3 {
        fill: #191d1f;
      }

      .cls-4 {
        fill: #fff;
      }
    </style>
  </defs>
  <g id="Layer_2" data-name="Layer 2">
    <circle class="cls-1" cx="135.5" cy="133.5" r="126.5"/>
    <path class="cls-3" d="M258.3,164c-13.65,55.13-63.46,96-122.8,96S26.35,219.13,12.7,164h245.6Z"/>
  </g>
  <g id="Layer_4" data-name="Layer 4">
    <path class="cls-2" d="M130,80.34l24-.34c9.98.18,20.73,2.41,32,6,13.09,3.98,24.64,7.61,26,9,5.05,2.49,13.69,9.44,22,16,6.64,6.65,10.63,11.66,12,15,1.19,2.9-45.58-19.77-63-19l-31-8-39,5,1-20,16-3.66Z"/>
    <path class="cls-2" d="M222,162c-.9-1.4-1.34-4.11-1-9-1.1-3.97-3.3-8.14-6.34-12.47-2.88-1.93-5.88-3.22-9.25-2.66,12.46,2.01-6.59-3.52-13.41-6.11l11-3.76c1.51-.51,1.63-1.39-1-3-2.4-1.74-7.21-3.41-15-5-8.21-1.74-15.55-2.88-20-2,0,0-21-1-24,2s-43.2,18.05-43.2,18.05l-24.8,24.95-13,28,32-13s-26,9,9,26,59,20,59,20l13-3,33-9,14-50"/>
    <path class="cls-2" d="M160.93,46.04c-22.9,1.1-55.39,5.86-41.93,6.96-3.58-3.97-1.81-3.95-9-8,1.32,1.7,1.61,3.87,2,6,1.62-4.48-.53-2.04-3,1,10.07,6.35-20.6-23.62-37-28-11.6-4.92-22.87-6.27-34-6,11.92,5.94,22.65,11.54,24,14.53l24,30.47-12,10c-3.29,2.58-6.89,5.72-5,5-1.02-1.33-2.01,5.6-3,12-7.95,3.6-14.95,8.93-21,16-4.51,4.94-7.92,10.25-10,16,15.65-9.16,27.92-15.38,34.6-16.71l91.33-59.25"/>
  </g>
  <g id="Layer_3" data-name="Layer 3">
    <path class="cls-4" d="M168.63,190.26l-.12-.25c-.33-.66-.83-1.23-1.44-1.64l-.99-.66c-.7-.47-1.52-.71-2.36-.71h-2.17c-1.06,0-2.82-.95-3.81-1.54-.47-.28-.88-.65-1.21-1.1l-2.01-2.68c-.34-.45-.59-.97-.72-1.52l-.56-2.24c-.15-.61-.17-1.25-.04-1.87l.56-2.8c.16-.82.57-1.58,1.16-2.17l1.6-1.6c.32-.32.7-.59,1.11-.8l2.97-1.48c.28-.14.57-.25.87-.32l3.04-.76c.34-.08.68-.13,1.03-.13h5.95c.35,0,.69.04,1.03.13l3.04.76c.3.08.59.18.87.32l2.68,1.34c.59.3,1.1.72,1.5,1.25l2.17,2.89c.15.2.29.42.4.65l.04.08c.5,1.01.59,2.18.23,3.25l-.44,1.33s0,2.13,1,2.06c.45-.03,1.3-.15,2.09-.27,1.16-.18,2.2-.83,2.86-1.8l1.52-2.22c.35-.51.58-1.09.69-1.7l.79-4.73c.04-.23.06-.46.06-.7v-5.03c0-.46-.08-.92-.22-1.36l-1.63-4.82c-.1-.29-.23-.57-.38-.83l-2.62-4.36c-.1-.16-.21-.32-.33-.47l-3.53-4.41c-.2-.25-.42-.47-.66-.66l-4.28-3.42c-.23-.19-.49-.35-.75-.48l-6.95-3.47c-.43-.22-.9-.36-1.37-.42l-6.59-.82c-.45-.06-.91-.04-1.36.05l-4.32.86-4.57.91c-.29.06-.57.15-.84.26l-6.02,2.58c-.38.16-.73.38-1.05.64l-5.38,4.48c-.1.08-.19.17-.28.26l-2.38,2.38c-.32.32-.59.7-.8,1.11l-1.69,3.38-2.75,5.49c-.17.34-.29.7-.37,1.07l-.81,4.03c-.05.27-.08.55-.08.83v4.16c0,.28.03.56.08.83l.87,4.33c.03.17.08.34.14.51l1.77,5.31c.1.29.23.58.39.84l2.39,3.98c.25.41.56.77.92,1.08l5.16,4.3c.19.16.4.3.61.43l6.31,3.61c.24.14.5.25.77.34l1.95.65c.43.14.89.22,1.34.22h9.79c.35,0,.69-.04,1.03-.13l2.35-.59c.75-.19,1.43-.57,1.98-1.12h0c1.29-1.29,1.62-3.27.8-4.91Z"/>
    <path class="cls-4" d="M214.22,36.52c.22-.32,1.11-1.71.78-3.52-.05-.3-.44-2.28-2-3-.58-.27-1.06-.24-3,0-1.14.14-2-1-3.97.53.09-.33.04-.47-.03-.53-.16-.15-.5.06-1.28.22-.22.04-.4.07-.54.08l-3.91,1.59c-.19.05-.38.09-.57.13l-29.22,2.37c-3.79-.13-6.15.28-6.89.89.02.07.03.14.05.2.01.03.02.07.03.1,0,.01,0,.02,0,.02,0,0,0,0,0,.02.03.07.07.13.11.19.01.02.03.04.04.05.02.02.04.04.06.06,0,0,.02.01.02.02.24.08.48.16.73.23.51.14,1.03.27,1.55.4,1.04.26,2.07.59,3.09.91.81.25,1.75.6,2.36,1.21.54.54.46,1.35.02,1.91-.04.14-.08.28-.15.41-.08.15-.2.26-.34.36-.21.43-.56.78-1.01.96l-9.1,3.64s-.1.04-.15.07l-9.85,4.92c-.06.02-.11.05-.17.07-2.76,1.06-5.87,2.26-8.51,3.27l-.38.08c-1.15.14-11.21,3.3-15.92,5.58-.07.02-.15.06-.21.1l-4.85,2.91s-.06.04-.09.06c-8.66,4.22-17.59,9.56-27.89,20.9-.04.05-.09.09-.14.12l-12.72,8.8c-.12.11-.25.22-.37.34l-10.61,12.54c-.14.17-.23.38-.25.61-.83,3.9-1.01,10.87-.92,10.93.06.97.7,1.03,1.45.2.08-.09.19-.17.3-.22l2.33-.96c.12-.05.21-.12.3-.21.21-.22.48-.41.69-.62.33-.32.67-.63,1.04-.89.95-.68,1.84-1.45,2.8-2.12.81-.57,1.41-1.36,2.2-1.96.85-.65,1.77-1.22,2.66-1.82.76-.51,1.58-.93,2.52-.9.85.03,1.6.05,2.12.82.97,1.42.36,3.76-.28,5.18-.43.97-.95,1.93-1.58,2.79-.44.6-.82,1.24-1.2,1.86-.05.08-.08.16-.1.26l-.23,1.05c-.06.17-.13.34-.19.51l-10.76,19.56c-.06.14-.11.28-.17.42l-2.91,10.68c-.02.07-.03.14-.05.21l-1.96,12.75c0,.1-.01.19-.02.29v7.06c0,.51-.2,1-.56,1.35l-5.31,5.31c-.09.09-.16.19-.21.3-4.98,4.97-7.23,10.55-7.76,16.5-.1.21-.13.46-.08.69-1.56,11.5,1.09,17.62,4.91,22.26.2.27.48.52.58.73,1.43,2.43,2.89,3.23,4.38,2.14.24-.21.14-.39.74-.5.42-.08.72-.44.7-.87-.22-6.51,1.39-9.91,5.95-14.42.3-.76,1.3-.93,1.83-.3l3.75,4.5c.05.07.12.18.17.25,3.92,7.5,8.93,14.4,14.85,20.78.04.04.08.1.11.15,3.95,6.97,7.61,12.19,10.86,14.85.06.05.13.09.2.12,1.09.48,2.2,1,2.71-.2.3-.41.82-1.6.8-2.65,0-.09-.02-.17-.05-.26-1.91-5.94-4.39-11.86-7.48-17.75-.06-.13-.08-.27-.08-.42v-5.95c0-.5.2-.98.54-1.34l.48-.49c.58-.6,1.48-.75,2.23-.38l4.68,2.34s.09.05.13.07l4.82,2.89c.08.05.14.1.21.16l.35.35c.36.36.85.56,1.35.56h3.84c.24,0,.49.05.71.14l4.41,1.76c.17.04.35.08.52.13l7.65.76c.06,0,.11,0,.17,0l16.66.2c.17.02.34.05.5.07l6.5,1.86c.18.02.35.05.53.07h14.46c.18-.02.35-.05.53-.07l5.93-1.69c.52-.15.95-.5,1.19-.99l.77-1.53c.47-.95.09-2.1-.86-2.57l-2.06-1.03c-.15-.08-.31-.13-.48-.17l-4.63-.93c-.08-.02-.15-.04-.23-.06l-2.59-.86c-.2-.03-.4-.07-.61-.1h-6.42c-.18.02-.35.05-.53.07l-6.4,1.83c-.23.02-.46.04-.69.07l-9.51-.82c-.17-.04-.34-.08-.51-.12l-10.53-4c-.06-.03-.12-.05-.18-.08l-9.53-4.76c-.25-.13-.47-.31-.65-.53l-10.54-13.41c-.1-.18-.2-.36-.3-.55l-5.82-16.48c-.03-.15-.07-.3-.1-.45l-.86-8.91c-.08-.8-.64-1.46-1.42-1.67-.45-.12-.93-.07-1.35.14l-19.16,9.58c-.12.08-.23.15-.35.23l-7.76,6.31c-.12.1-.25.16-.37.22-.41.5-.86.96-1.42,1.31-.6.37-1.23.69-1.86,1.01-.21.16-.42.32-.63.46-.45.3-.97.5-1.42.81-.23.15-.44.08-.58-.07-.16-.12-.26-.33-.21-.53.14-.62.54-1.13.93-1.62.4-.5.73-1.05,1.06-1.6.36-.6.69-1.22,1.07-1.81.18-.27.37-.54.54-.81.14-.22.29-.44.48-.62l7.21-12.46c.09-.12.19-.25.28-.37l15.71-16.23c.09-.08.18-.15.27-.23l16.77-11.84s.03-.02.05-.03c7.35-4.5,18.96-9.98,18.99-10,.04-.02.12-.05.08-.04-.04.02,8.2-3.83,13.87-5.94.06-.03.13-.05.2-.06,5.44-2.27,13.12-3.65,21.63-4.7.66-.14,1.03-.85.76-1.47l-1.98-4.61c-.31-.72-.15-1.55.41-2.11l.44-.44c.41-.41.97-.61,1.54-.55l8.91.89c.12.03.25.05.37.08l12.41,3.82c.26.08.55.06.8-.07.73-.36.8-1.38.14-1.84l-8.52-5.96-3.75-2.81c-.18-.1-.36-.19-.54-.28l-11.45-3.82c-.13-.03-.26-.06-.39-.08-9.56-.89-18.62-1.07-26.79,0-.05,0-.1,0-.15.01l-13.81,1.97c-.08.02-.15.03-.23.05l-9.53,2.6c-.68.19-1.36-.33-1.36-1.04-.05-.68-.09-1.36,0-2.21,0-.25.49-.98.25-.68-.25.3,12.2-16.44,18.71-22.65.03-.03.05-.06.09-.09.47-.44,4.53-4.1,13.82-6.92.09-.02.19-.04.28-.06,23.77-3.92,2.86,9.02,2.86,10.02s11.78.04,11.9.04c.07,0,.13,0,.2-.02,8.82-1.68,9.42-2.64,13.5-3.9.26-.08.5-.21.7-.39,1.46-1.29,7.7-6.85,7.7-7.73,0-1,8-4.06,8-4.06l12.87-4.89c.09-.03.17-.08.24-.13,2.3-.9,4.45-2.38,6.44-4.6.28-.2.45-.53.45-.87,1.15-2.64,1.55-5.12,0-7.22,0-.15.03-.29.09-.43-.84-3.53.79-5.99,3.48-7.98.2-.46.06-1-.35-1.3Z"/>
    <path class="cls-4" d="M192,208c-2.04-1.09-2.83-.08-3,2,.1,1.45,1.65,3.78,3,6,1.09,2.77.36,3.07,0,4l-1.5,4.01-3.5,5.99-1,4-1,2c-.99,2.15-.66,2.88,1,2l22-20,3-4,1-3c.13-.62.13-1.29,0-2-2.25-4.23-6.21-7.91-12-11-.73.1-1.13.39-1,1,1.66,5.15,2.89,9.95,2,13-.6,2.32-2.17,2.02-4,1l-5-5"/>
  </g>
</svg>